<svg width="170" height="42" viewBox="0 0 170 42" fill="none" xmlns="http://www.w3.org/2000/svg">
<path opacity="0.8" d="M31.2988 10.0274C30.9293 9.65793 30.5599 9.28848 30.1904 8.91903C29.0821 7.73678 27.8998 6.55453 26.422 5.81563C24.7225 4.92894 22.8753 5.15061 21.028 5.15061C18.2202 5.15061 11.2006 5.15061 7.06268 5.15061L9.87053 8.91903C14.969 8.91903 22.9492 8.91903 26.6437 8.91903C28.1954 8.91903 29.5254 9.21459 30.7816 10.0274C31.0032 10.1013 31.2249 10.1013 31.2988 10.0274Z" fill="black"/>
<path opacity="0.9" d="M34.4022 16.0865C34.0327 15.717 33.6633 15.3476 33.2938 14.9781C32.1855 13.7959 31.0032 12.6136 29.5254 11.8747C27.8259 10.988 25.9787 11.2097 24.1314 11.2097C21.693 11.2097 15.8556 11.2097 11.7178 11.2097L14.5256 14.9781C19.5502 14.9781 26.422 14.9781 29.821 14.9781C31.3727 14.9781 32.7027 15.2737 33.9588 16.0865C34.1066 16.1604 34.2544 16.1604 34.4022 16.0865Z" fill="black"/>
<path d="M37.875 21.9976C37.5056 21.6282 37.1361 21.2587 36.7667 20.8892C35.6583 19.707 34.4761 18.5247 32.9983 17.7858C31.2988 16.8991 29.4515 17.1208 27.6042 17.1208C25.3136 17.1208 20.2891 17.1208 16.2251 17.1208L19.0329 20.8892C23.9097 20.8892 30.1165 20.8892 33.2199 20.8892C34.7716 20.8892 36.1017 21.1848 37.3578 21.9976C37.5795 22.0715 37.7272 22.1454 37.875 21.9976Z" fill="black"/>
<path opacity="0.8" d="M6.76715 31.9727C7.1366 32.3421 7.50606 32.7116 7.87551 33.081C8.98387 34.2633 10.1661 35.4455 11.6439 36.1844C13.3434 37.0711 15.1907 36.8494 17.0379 36.8494H31.0033L28.1954 33.081C23.097 33.081 15.1168 33.081 11.4223 33.081C9.87056 33.081 8.54052 32.7855 7.28438 31.9727C7.06271 31.8988 6.91493 31.8988 6.76715 31.9727Z" fill="black"/>
<path opacity="0.9" d="M3.6637 25.9138C4.03315 26.2833 4.4026 26.6527 4.77205 27.0222C5.88041 28.2044 7.06266 29.3867 8.54047 30.1256C10.2399 31.0123 12.0872 30.7906 13.9345 30.7906H26.3481L23.5403 27.0222C18.5157 27.0222 11.6439 27.0222 8.24491 27.0222C6.69321 27.0222 5.36317 26.7266 4.10703 25.9138C3.95925 25.8399 3.81148 25.8399 3.6637 25.9138Z" fill="black"/>
<path d="M0.264709 19.9285C0.634162 20.2979 1.00362 20.6674 1.37307 21.0368C2.48143 22.2191 3.66368 23.4013 5.14149 24.1402C6.84097 25.0269 8.68823 24.8052 10.5355 24.8052H21.9146L19.1068 21.0368C14.23 21.0368 8.02322 21.0368 4.91982 21.0368C3.36812 21.0368 2.03808 20.7413 0.781941 19.9285C0.560269 19.8546 0.412491 19.8546 0.264709 19.9285Z" fill="black"/>
<path d="M46.3647 12.4592V29.548H50.1223V22.4875H57.2785V19.5676H50.1223V15.6185H58.3795V12.4592H46.3647Z" fill="black"/>
<path d="M67.804 22.0328H62.2753C62.2912 21.7934 62.3391 21.5222 62.4189 21.219C62.5146 20.9158 62.6662 20.6286 62.8736 20.3574C63.097 20.0861 63.3842 19.8628 63.7352 19.6872C64.1022 19.4958 64.5569 19.4 65.0994 19.4C65.9292 19.4 66.5435 19.6234 66.9424 20.0702C67.3572 20.5169 67.6444 21.1711 67.804 22.0328ZM62.2753 24.1868H71.2026C71.2664 23.2295 71.1866 22.312 70.9632 21.4344C70.7399 20.5568 70.3729 19.775 69.8623 19.0889C69.3676 18.4028 68.7294 17.8603 67.9476 17.4614C67.1657 17.0465 66.2483 16.8391 65.1952 16.8391C64.2538 16.8391 63.3922 17.0067 62.6103 17.3417C61.8444 17.6768 61.1823 18.1395 60.6238 18.7299C60.0654 19.3043 59.6346 19.9904 59.3314 20.7882C59.0282 21.586 58.8767 22.4476 58.8767 23.3731C58.8767 24.3304 59.0203 25.208 59.3075 26.0058C59.6106 26.8036 60.0335 27.4897 60.576 28.0641C61.1185 28.6385 61.7806 29.0853 62.5625 29.4044C63.3443 29.7075 64.2219 29.8591 65.1952 29.8591C66.5993 29.8591 67.796 29.54 68.7853 28.9018C69.7745 28.2635 70.5085 27.2025 70.9872 25.7186H67.9954C67.8837 26.1015 67.5806 26.4685 67.086 26.8195C66.5913 27.1546 66.001 27.3221 65.3148 27.3221C64.3575 27.3221 63.6235 27.0748 63.1129 26.5802C62.6024 26.0856 62.3231 25.2878 62.2753 24.1868Z" fill="black"/>
<path d="M72.3566 20.9797C72.4045 20.1819 72.6039 19.5197 72.955 18.9932C73.306 18.4666 73.7528 18.0438 74.2953 17.7247C74.8378 17.4056 75.4441 17.1822 76.1142 17.0545C76.8003 16.9109 77.4864 16.8391 78.1726 16.8391C78.7948 16.8391 79.4251 16.887 80.0633 16.9827C80.7016 17.0625 81.2839 17.23 81.8105 17.4853C82.337 17.7406 82.7678 18.0996 83.1029 18.5624C83.438 19.0091 83.6055 19.6075 83.6055 20.3574V26.7956C83.6055 27.354 83.6374 27.8886 83.7013 28.3992C83.7651 28.9097 83.8768 29.2927 84.0363 29.548H80.5899C80.526 29.3565 80.4702 29.165 80.4223 28.9736C80.3904 28.7661 80.3665 28.5587 80.3505 28.3513C79.808 28.9097 79.1698 29.3007 78.4358 29.524C77.7019 29.7474 76.9519 29.8591 76.186 29.8591C75.5957 29.8591 75.0452 29.7873 74.5346 29.6437C74.024 29.5001 73.5773 29.2767 73.1943 28.9736C72.8114 28.6704 72.5082 28.2875 72.2848 27.8247C72.0774 27.362 71.9737 26.8115 71.9737 26.1733C71.9737 25.4713 72.0934 24.8968 72.3327 24.4501C72.588 23.9874 72.9071 23.6204 73.2901 23.3491C73.6889 23.0779 74.1357 22.8784 74.6303 22.7508C75.1409 22.6072 75.6515 22.4955 76.1621 22.4157C76.6727 22.3359 77.1753 22.2721 77.6699 22.2242C78.1646 22.1764 78.6034 22.1046 78.9863 22.0088C79.3692 21.9131 79.6724 21.7775 79.8958 21.6019C80.1192 21.4105 80.2229 21.1392 80.2069 20.7882C80.2069 20.4212 80.1431 20.134 80.0155 19.9266C79.9038 19.7032 79.7442 19.5357 79.5368 19.424C79.3453 19.2963 79.1139 19.2165 78.8427 19.1846C78.5874 19.1368 78.3082 19.1128 78.005 19.1128C77.3349 19.1128 76.8083 19.2564 76.4254 19.5436C76.0424 19.8308 75.8191 20.3095 75.7552 20.9797H72.3566ZM80.2069 23.4927C80.0633 23.6204 79.8798 23.7241 79.6564 23.8039C79.449 23.8677 79.2177 23.9235 78.9624 23.9714C78.723 24.0193 78.4677 24.0592 78.1965 24.0911C77.9252 24.123 77.654 24.1629 77.3827 24.2107C77.1274 24.2586 76.8721 24.3224 76.6169 24.4022C76.3775 24.482 76.1621 24.5937 75.9706 24.7373C75.7951 24.8649 75.6515 25.0325 75.5398 25.2399C75.4281 25.4473 75.3723 25.7106 75.3723 26.0297C75.3723 26.3329 75.4281 26.5882 75.5398 26.7956C75.6515 27.003 75.8031 27.1706 75.9946 27.2982C76.186 27.4099 76.4094 27.4897 76.6647 27.5375C76.92 27.5854 77.1833 27.6093 77.4545 27.6093C78.1247 27.6093 78.6432 27.4976 79.0102 27.2743C79.3772 27.0509 79.6485 26.7876 79.824 26.4845C79.9995 26.1653 80.1032 25.8462 80.1351 25.5271C80.183 25.208 80.2069 24.9527 80.2069 24.7612V23.4927Z" fill="black"/>
<path d="M89.8336 17.1742V13.4644H86.435V17.1742H84.3766V19.4479H86.435V26.7477C86.435 27.37 86.5387 27.8726 86.7461 28.2556C86.9535 28.6385 87.2327 28.9337 87.5838 29.1411C87.9508 29.3485 88.3656 29.4842 88.8283 29.548C89.307 29.6278 89.8096 29.6676 90.3362 29.6676C90.6712 29.6676 91.0143 29.6597 91.3653 29.6437C91.7164 29.6278 92.0355 29.5958 92.3227 29.548V26.9153C92.1631 26.9472 91.9956 26.9711 91.8201 26.9871C91.6446 27.003 91.4611 27.011 91.2696 27.011C90.6952 27.011 90.3122 26.9153 90.1208 26.7238C89.9293 26.5323 89.8336 26.1494 89.8336 25.575V19.4479H92.3227V17.1742H89.8336Z" fill="black"/>
<path d="M93.2217 12.4592V29.548H96.6203V23.0619C96.6203 21.8014 96.8277 20.8999 97.2426 20.3574C97.6574 19.7989 98.3276 19.5197 99.253 19.5197C100.067 19.5197 100.633 19.775 100.952 20.2856C101.271 20.7802 101.431 21.5381 101.431 22.5593V29.548H104.83V21.937C104.83 21.1711 104.758 20.4771 104.614 19.8548C104.487 19.2165 104.255 18.682 103.92 18.2512C103.585 17.8045 103.122 17.4614 102.532 17.2221C101.958 16.9668 101.216 16.8391 100.306 16.8391C99.6679 16.8391 99.0137 17.0067 98.3435 17.3417C97.6734 17.6608 97.1229 18.1794 96.6921 18.8974H96.6203V12.4592H93.2217Z" fill="black"/>
<path d="M115.02 22.0328H109.491C109.507 21.7934 109.555 21.5222 109.635 21.219C109.731 20.9158 109.882 20.6286 110.09 20.3574C110.313 20.0861 110.6 19.8628 110.951 19.6872C111.318 19.4958 111.773 19.4 112.315 19.4C113.145 19.4 113.759 19.6234 114.158 20.0702C114.573 20.5169 114.86 21.1711 115.02 22.0328ZM109.491 24.1868H118.419C118.482 23.2295 118.403 22.312 118.179 21.4344C117.956 20.5568 117.589 19.775 117.078 19.0889C116.584 18.4028 115.945 17.8603 115.164 17.4614C114.382 17.0465 113.464 16.8391 112.411 16.8391C111.47 16.8391 110.608 17.0067 109.826 17.3417C109.06 17.6768 108.398 18.1395 107.84 18.7299C107.281 19.3043 106.851 19.9904 106.547 20.7882C106.244 21.586 106.093 22.4476 106.093 23.3731C106.093 24.3304 106.236 25.208 106.523 26.0058C106.827 26.8036 107.249 27.4897 107.792 28.0641C108.334 28.6385 108.997 29.0853 109.778 29.4044C110.56 29.7075 111.438 29.8591 112.411 29.8591C113.815 29.8591 115.012 29.54 116.001 28.9018C116.991 28.2635 117.725 27.2025 118.203 25.7186H115.211C115.1 26.1015 114.797 26.4685 114.302 26.8195C113.807 27.1546 113.217 27.3221 112.531 27.3221C111.574 27.3221 110.84 27.0748 110.329 26.5802C109.818 26.0856 109.539 25.2878 109.491 24.1868Z" fill="black"/>
<path d="M119.716 17.1742V29.548H123.115V23.9714C123.115 23.4129 123.171 22.8944 123.282 22.4157C123.394 21.937 123.578 21.5222 123.833 21.1711C124.104 20.8042 124.455 20.5169 124.886 20.3095C125.317 20.1021 125.843 19.9984 126.466 19.9984C126.673 19.9984 126.888 20.0143 127.112 20.0463C127.335 20.0622 127.527 20.0861 127.686 20.1181V16.9588C127.415 16.879 127.168 16.8391 126.944 16.8391C126.513 16.8391 126.099 16.9029 125.7 17.0306C125.301 17.1582 124.926 17.3417 124.575 17.5811C124.224 17.8045 123.913 18.0837 123.641 18.4188C123.37 18.7379 123.155 19.0889 122.995 19.4718H122.947V17.1742H119.716Z" fill="black"/>
<path d="M132.417 26.3887V15.6185H135.098C136.023 15.6185 136.797 15.7541 137.419 16.0254C138.058 16.2807 138.568 16.6556 138.951 17.1503C139.334 17.6449 139.605 18.2432 139.765 18.9453C139.94 19.6314 140.028 20.4053 140.028 21.2669C140.028 22.2083 139.909 23.0061 139.669 23.6603C139.43 24.3145 139.111 24.849 138.712 25.2638C138.313 25.6627 137.858 25.9499 137.348 26.1254C136.837 26.301 136.31 26.3887 135.768 26.3887H132.417ZM128.66 12.4592V29.548H136.031C137.34 29.548 138.473 29.3326 139.43 28.9018C140.403 28.455 141.209 27.8487 141.847 27.0828C142.501 26.3169 142.988 25.4074 143.307 24.3543C143.626 23.3013 143.786 22.1524 143.786 20.9079C143.786 19.4878 143.586 18.2512 143.187 17.1981C142.805 16.145 142.262 15.2675 141.56 14.5654C140.874 13.8633 140.052 13.3368 139.095 12.9858C138.153 12.6347 137.132 12.4592 136.031 12.4592H128.66Z" fill="black"/>
<path d="M153.652 22.0328H148.123C148.139 21.7934 148.187 21.5222 148.266 21.219C148.362 20.9158 148.514 20.6286 148.721 20.3574C148.945 20.0861 149.232 19.8628 149.583 19.6872C149.95 19.4958 150.405 19.4 150.947 19.4C151.777 19.4 152.391 19.6234 152.79 20.0702C153.205 20.5169 153.492 21.1711 153.652 22.0328ZM148.123 24.1868H157.05C157.114 23.2295 157.034 22.312 156.811 21.4344C156.587 20.5568 156.221 19.775 155.71 19.0889C155.215 18.4028 154.577 17.8603 153.795 17.4614C153.013 17.0465 152.096 16.8391 151.043 16.8391C150.101 16.8391 149.24 17.0067 148.458 17.3417C147.692 17.6768 147.03 18.1395 146.471 18.7299C145.913 19.3043 145.482 19.9904 145.179 20.7882C144.876 21.586 144.724 22.4476 144.724 23.3731C144.724 24.3304 144.868 25.208 145.155 26.0058C145.458 26.8036 145.881 27.4897 146.424 28.0641C146.966 28.6385 147.628 29.0853 148.41 29.4044C149.192 29.7075 150.07 29.8591 151.043 29.8591C152.447 29.8591 153.644 29.54 154.633 28.9018C155.622 28.2635 156.356 27.2025 156.835 25.7186H153.843C153.731 26.1015 153.428 26.4685 152.934 26.8195C152.439 27.1546 151.849 27.3221 151.162 27.3221C150.205 27.3221 149.471 27.0748 148.961 26.5802C148.45 26.0856 148.171 25.2878 148.123 24.1868Z" fill="black"/>
<path d="M165.193 29.548L169.381 17.1742H166.007L163.398 25.6228H163.35L160.741 17.1742H157.175L161.411 29.548H165.193Z" fill="black"/>
</svg>
