<svg width="146" height="42" viewBox="0 0 146 42" fill="none" xmlns="http://www.w3.org/2000/svg">
<path fill-rule="evenodd" clip-rule="evenodd" d="M18.8052 39.8051C29.1909 39.8051 37.6103 31.3858 37.6103 21C37.6103 10.6142 29.1909 2.19482 18.8052 2.19482C8.41933 2.19482 0 10.6142 0 21C0 31.3858 8.41933 39.8051 18.8052 39.8051ZM24.6717 10.9551C24.9573 9.94072 23.9729 9.34091 23.0739 9.98138L10.5244 18.9216C9.54945 19.6162 9.70281 21 10.7548 21H14.0594V20.9744H20.5L15.2521 22.826L12.9386 31.0449C12.6531 32.0593 13.6373 32.6591 14.5364 32.0186L27.0859 23.0784C28.0609 22.3838 27.9074 21 26.8555 21H21.8442L24.6717 10.9551Z" fill="black"/>
<path d="M47.3377 29.4703V26.4956H49.6969V14.4945H47.3377V11.5199H56.5693C57.6634 11.5199 58.6122 11.7079 59.4157 12.0841C60.2363 12.4431 60.8689 12.9645 61.3134 13.6483C61.7749 14.315 62.0057 15.1185 62.0057 16.0588V16.3152C62.0057 17.1358 61.8519 17.8111 61.5441 18.341C61.2364 18.8539 60.8689 19.2557 60.4415 19.5463C60.0312 19.8198 59.638 20.0164 59.2619 20.1361V20.5977C59.638 20.7002 60.0483 20.8968 60.4928 21.1875C60.9372 21.461 61.3134 21.8627 61.6211 22.3927C61.9459 22.9227 62.1083 23.615 62.1083 24.4698V24.7262C62.1083 25.7178 61.8775 26.5726 61.4159 27.2906C60.9543 27.9915 60.3133 28.53 59.4927 28.9061C58.6892 29.2822 57.7489 29.4703 56.6719 29.4703H47.3377ZM53.0818 26.3931H56.2616C56.9967 26.3931 57.5865 26.2136 58.031 25.8545C58.4926 25.4955 58.7234 24.9827 58.7234 24.3159V24.0595C58.7234 23.3928 58.5011 22.8799 58.0566 22.5209C57.6122 22.1619 57.0138 21.9824 56.2616 21.9824H53.0818V26.3931ZM53.0818 18.9052H56.2103C56.9112 18.9052 57.4839 18.7257 57.9284 18.3667C58.39 18.0077 58.6208 17.5119 58.6208 16.8794V16.6229C58.6208 15.9733 58.3986 15.4775 57.9541 15.1356C57.5096 14.7766 56.9283 14.5971 56.2103 14.5971H53.0818V18.9052Z" fill="black"/>
<path d="M69.7516 29.8293C68.4866 29.8293 67.3497 29.5728 66.3411 29.06C65.3324 28.5471 64.5375 27.8034 63.9562 26.829C63.375 25.8545 63.0843 24.6835 63.0843 23.3159V22.9056C63.0843 21.5379 63.375 20.3669 63.9562 19.3924C64.5375 18.418 65.3324 17.6743 66.3411 17.1614C67.3497 16.6486 68.4866 16.3921 69.7516 16.3921C71.0167 16.3921 72.1536 16.6486 73.1622 17.1614C74.1708 17.6743 74.9658 18.418 75.547 19.3924C76.1283 20.3669 76.4189 21.5379 76.4189 22.9056V23.3159C76.4189 24.6835 76.1283 25.8545 75.547 26.829C74.9658 27.8034 74.1708 28.5471 73.1622 29.06C72.1536 29.5728 71.0167 29.8293 69.7516 29.8293ZM69.7516 26.9572C70.7432 26.9572 71.5638 26.6409 72.2134 26.0084C72.863 25.3588 73.1878 24.4356 73.1878 23.2389V22.9825C73.1878 21.7858 72.863 20.8712 72.2134 20.2386C71.5809 19.589 70.7603 19.2642 69.7516 19.2642C68.7601 19.2642 67.9395 19.589 67.2899 20.2386C66.6402 20.8712 66.3154 21.7858 66.3154 22.9825V23.2389C66.3154 24.4356 66.6402 25.3588 67.2899 26.0084C67.9395 26.6409 68.7601 26.9572 69.7516 26.9572Z" fill="black"/>
<path d="M78.1192 29.4703V11.5199H81.3502V29.4703H78.1192Z" fill="black"/>
<path d="M88.5208 29.4703C87.6831 29.4703 86.9993 29.2138 86.4693 28.701C85.9564 28.171 85.7 27.4701 85.7 26.5982V19.4181H82.5202V16.7511H85.7V12.8021H88.9311V16.7511H92.4186V19.4181H88.9311V26.0341C88.9311 26.5469 89.1704 26.8034 89.6491 26.8034H92.1109V29.4703H88.5208Z" fill="black"/>
<path d="M99.3437 29.8293C97.6854 29.8293 96.3263 29.4703 95.2664 28.7523C94.2065 28.0342 93.5654 27.0085 93.3431 25.675L96.3178 24.9057C96.4374 25.5041 96.634 25.9742 96.9076 26.3161C97.1982 26.658 97.5487 26.9059 97.9589 27.0598C98.3863 27.1966 98.8479 27.2649 99.3437 27.2649C100.096 27.2649 100.652 27.1367 101.011 26.8803C101.37 26.6068 101.549 26.2734 101.549 25.8802C101.549 25.487 101.378 25.1878 101.036 24.9827C100.694 24.7604 100.147 24.5809 99.395 24.4442L98.677 24.3159C97.788 24.145 96.976 23.9142 96.2408 23.6236C95.5057 23.3159 94.9159 22.897 94.4714 22.367C94.027 21.8371 93.8047 21.1533 93.8047 20.3156C93.8047 19.0505 94.2663 18.0846 95.1895 17.4179C96.1126 16.7341 97.3264 16.3921 98.8308 16.3921C100.25 16.3921 101.429 16.7084 102.37 17.3409C103.31 17.9735 103.925 18.8026 104.216 19.8284L101.216 20.7515C101.079 20.1019 100.797 19.6403 100.369 19.3668C99.9591 19.0932 99.4463 18.9565 98.8308 18.9565C98.2154 18.9565 97.7453 19.0676 97.4204 19.2898C97.0956 19.495 96.9332 19.7856 96.9332 20.1617C96.9332 20.572 97.1042 20.8797 97.4461 21.0849C97.788 21.2729 98.2496 21.4182 98.8308 21.5208L99.5488 21.649C100.506 21.82 101.37 22.0508 102.139 22.3414C102.925 22.6149 103.541 23.0167 103.985 23.5466C104.447 24.0595 104.678 24.7604 104.678 25.6494C104.678 26.9829 104.19 28.0171 103.216 28.7523C102.258 29.4703 100.968 29.8293 99.3437 29.8293Z" fill="black"/>
<path d="M106.227 29.4703V11.5199H109.458V18.3154H109.919C110.056 18.0419 110.27 17.7683 110.56 17.4948C110.851 17.2213 111.236 16.999 111.714 16.8281C112.21 16.64 112.834 16.546 113.586 16.546C114.578 16.546 115.441 16.7768 116.176 17.2384C116.929 17.6829 117.51 18.3068 117.92 19.1103C118.33 19.8967 118.536 20.8199 118.536 21.8798V29.4703H115.304V22.1363C115.304 21.1789 115.065 20.4609 114.586 19.9822C114.125 19.5035 113.458 19.2642 112.586 19.2642C111.595 19.2642 110.825 19.5976 110.278 20.2643C109.731 20.9139 109.458 21.8285 109.458 23.0081V29.4703H106.227Z" fill="black"/>
<path d="M120.746 29.4703V16.7511H123.977V29.4703H120.746ZM122.362 15.2638C121.781 15.2638 121.285 15.0758 120.875 14.6997C120.481 14.3236 120.285 13.8278 120.285 13.2124C120.285 12.5969 120.481 12.1011 120.875 11.725C121.285 11.3489 121.781 11.1609 122.362 11.1609C122.96 11.1609 123.456 11.3489 123.849 11.725C124.242 12.1011 124.439 12.5969 124.439 13.2124C124.439 13.8278 124.242 14.3236 123.849 14.6997C123.456 15.0758 122.96 15.2638 122.362 15.2638Z" fill="black"/>
<path d="M128.378 29.4703V19.4181H125.147V16.7511H128.378V14.392C128.378 13.5201 128.635 12.8277 129.148 12.3148C129.678 11.7849 130.362 11.5199 131.199 11.5199H134.533V14.1868H132.327C131.849 14.1868 131.609 14.4432 131.609 14.9561V16.7511H134.943V19.4181H131.609V29.4703H128.378Z" fill="black"/>
<path d="M140.784 29.4703C139.947 29.4703 139.263 29.2138 138.733 28.701C138.22 28.171 137.963 27.4701 137.963 26.5982V19.4181H134.784V16.7511H137.963V12.8021H141.194V16.7511H144.682V19.4181H141.194V26.0341C141.194 26.5469 141.434 26.8034 141.913 26.8034H144.374V29.4703H140.784Z" fill="black"/>
</svg>
