<svg width="143" height="42" viewBox="0 0 143 42" fill="none" xmlns="http://www.w3.org/2000/svg">
<circle cx="19.4182" cy="21.2138" r="17.523" stroke="black" stroke-width="2.56434"/>
<path d="M26.369 28.1646C22.8308 31.7029 18.8222 34.0127 15.2524 34.9307C11.6502 35.8569 8.74688 35.3237 7.02757 33.6044C5.30826 31.8851 4.77506 28.9817 5.70132 25.3796C6.61929 21.8097 8.92908 17.8012 12.4674 14.263C16.0056 10.7247 20.0141 8.41489 23.584 7.49693C27.1861 6.57067 30.0895 7.10387 31.8088 8.82318C33.5281 10.5425 34.0613 13.4459 33.1351 17.048C32.2171 20.6178 29.9073 24.6264 26.369 28.1646Z" stroke="black" stroke-width="2.56434"/>
<path d="M26.3688 14.2629C29.9071 17.8011 32.2169 21.8097 33.1349 25.3795C34.0611 28.9816 33.5279 31.885 31.8086 33.6043C30.0893 35.3236 27.186 35.8568 23.5838 34.9306C20.014 34.0126 16.0055 31.7028 12.4672 28.1645C8.92891 24.6263 6.61912 20.6178 5.70115 17.0479C4.77489 13.4458 5.30809 10.5424 7.0274 8.82309C8.74671 7.10378 11.6501 6.57058 15.2522 7.49684C18.8221 8.41481 22.8306 10.7246 26.3688 14.2629Z" stroke="black" stroke-width="2.56434"/>
<path d="M54.3359 29.7531C58.3619 29.7531 61.0801 27.6504 61.0801 24.2911C61.0801 17.1879 51.6434 20.2138 51.6434 16.4699C51.6434 15.4185 52.5922 14.7005 54.1051 14.7005C55.8232 14.7005 56.9003 15.6236 57.0285 17.034H60.6955C60.5929 13.6234 57.9773 11.3925 54.1051 11.3925C50.4638 11.3925 47.8994 13.4952 47.8994 16.4699C47.8994 23.5218 57.208 20.8292 57.208 24.3424C57.208 25.7015 56.054 26.4195 54.3359 26.4195C52.4383 26.4195 51.2331 25.2655 51.0792 23.4449H47.3866C47.5404 27.2657 50.2586 29.7531 54.3359 29.7531Z" fill="black"/>
<path d="M61.9522 34.7792H65.5166V28.394C66.209 29.2659 67.4655 29.7531 68.9272 29.7531C72.6455 29.7531 75.1586 27.1119 75.1586 23.0858C75.1586 19.0598 72.8506 16.4186 69.2349 16.4186C67.5681 16.4186 66.2859 17.034 65.5166 18.0341V16.6237H61.9522V34.7792ZM68.4913 26.6759C66.568 26.6759 65.3115 25.2399 65.3115 23.0858C65.3115 20.9062 66.568 19.4701 68.4913 19.4701C70.3632 19.4701 71.6454 20.9062 71.6454 23.0858C71.6454 25.2399 70.3632 26.6759 68.4913 26.6759Z" fill="black"/>
<path d="M76.021 29.548H79.5854V22.4704C79.5854 20.8036 80.6881 19.5983 82.2524 19.5983C83.7397 19.5983 84.7654 20.7267 84.7654 22.2909V29.548H88.3298V21.496C88.3298 18.5213 86.4322 16.4186 83.5345 16.4186C81.7395 16.4186 80.3291 17.1622 79.5854 18.4188V11.0078H76.021V29.548Z" fill="black"/>
<path d="M98.3011 25.163C98.019 26.2656 97.0702 26.8298 95.6342 26.8298C93.8392 26.8298 92.6852 25.7015 92.4288 23.8808H101.712C101.737 23.5987 101.763 23.2141 101.763 22.7268C101.763 19.7779 99.9423 16.4186 95.3778 16.4186C90.9927 16.4186 88.9926 19.7779 88.9926 23.0602C88.9926 26.3169 91.2492 29.7531 95.6342 29.7531C98.814 29.7531 101.276 27.9581 101.789 25.163H98.3011ZM95.3778 19.0342C97.0959 19.0342 98.096 20.1881 98.1985 21.6242H92.4801C92.7878 19.8291 93.7622 19.0342 95.3778 19.0342Z" fill="black"/>
<path d="M111.111 19.5983V16.6237H109.272C107.708 16.6237 106.733 17.1622 106.041 18.7778V16.6237H102.451V29.548H106.041V23.2654C106.041 21.06 106.836 19.5983 108.605 19.5983H111.111Z" fill="black"/>
<path d="M123.42 16.6237H119.83V23.7013C119.83 25.3425 118.727 26.5733 117.163 26.5733C115.701 26.5733 114.676 25.445 114.676 23.8808V16.6237H111.111V24.6757C111.111 27.6247 113.009 29.7531 115.906 29.7531C117.676 29.7531 119.112 28.9838 119.83 27.7529V29.548H123.42V16.6237Z" fill="black"/>
<path d="M124.959 29.548H128.523V11.0078H124.959V29.548Z" fill="black"/>
<path d="M138.699 25.163C138.417 26.2656 137.469 26.8298 136.033 26.8298C134.237 26.8298 133.084 25.7015 132.827 23.8808H142.11C142.136 23.5987 142.161 23.2141 142.161 22.7268C142.161 19.7779 140.341 16.4186 135.776 16.4186C131.391 16.4186 129.391 19.7779 129.391 23.0602C129.391 26.3169 131.648 29.7531 136.033 29.7531C139.212 29.7531 141.674 27.9581 142.187 25.163H138.699ZM135.776 19.0342C137.494 19.0342 138.494 20.1881 138.597 21.6242H132.878C133.186 19.8291 134.161 19.0342 135.776 19.0342Z" fill="black"/>
</svg>
