<svg width="169" height="42" viewBox="0 0 169 42" fill="none" xmlns="http://www.w3.org/2000/svg">
<path d="M26.6185 2.19482H12.2088L0.608459 13.7951V28.2048L12.2088 39.8051H26.6185L38.2188 28.2048V13.7951L26.6185 2.19482ZM14.2025 28.3861L6.77113 20.9546L14.2025 13.5232C17.012 10.7138 21.634 10.7138 24.4434 13.5232L31.8748 20.9546L24.4434 28.3861C21.634 31.1955 17.1026 31.1955 14.2025 28.3861Z" fill="black"/>
<path d="M54.7502 29.7531C57.0581 29.7531 58.9557 28.5735 59.5455 26.8041V29.548H62.9561V22.6243C62.9561 21.06 61.7252 19.7266 60.0584 19.7266H55.1861V22.6243H58.648C59.0839 22.6243 59.366 22.9063 59.366 23.3423C59.366 25.0091 57.1607 26.6246 54.9297 26.6246C51.9551 26.6246 49.5959 24.2911 49.5959 20.5728C49.5959 16.8545 51.9551 14.7005 55.0066 14.7005C57.3145 14.7005 58.9044 15.957 59.1865 17.8802H63.0074C62.7766 14.0337 59.5455 11.3925 55.0323 11.3925C50.2882 11.3925 45.9289 14.444 45.9289 20.5728C45.9289 26.7016 50.16 29.7531 54.7502 29.7531Z" fill="black"/>
<path d="M64.4201 29.548H67.9846V11.0078H64.4201V29.548Z" fill="black"/>
<path d="M75.6734 29.7531C79.6481 29.7531 82.4945 26.9324 82.4945 23.0858C82.4945 19.2393 79.6481 16.4186 75.6734 16.4186C71.6987 16.4186 68.8522 19.2393 68.8522 23.0858C68.8522 26.9324 71.6987 29.7531 75.6734 29.7531ZM75.6734 26.6759C73.7501 26.6759 72.4423 25.2142 72.4423 23.0858C72.4423 20.9318 73.7501 19.4701 75.6734 19.4701C77.5966 19.4701 78.9045 20.9318 78.9045 23.0858C78.9045 25.2142 77.5966 26.6759 75.6734 26.6759Z" fill="black"/>
<path d="M90.4704 29.7531C94.2913 29.7531 96.5735 27.1119 96.5735 23.0858C96.5735 19.0598 94.2913 16.4186 90.5217 16.4186C88.9062 16.4186 87.6496 17.034 86.9316 17.9828V11.0078H83.3672V29.548H86.9316V28.1376C87.6496 29.1377 88.9831 29.7531 90.4704 29.7531ZM89.9063 26.6759C87.983 26.6759 86.7265 25.2399 86.7265 23.0858C86.7265 20.9062 87.983 19.4701 89.9063 19.4701C91.7782 19.4701 93.0604 20.9062 93.0604 23.0858C93.0604 25.2399 91.7782 26.6759 89.9063 26.6759Z" fill="black"/>
<path d="M102.54 16.4186C99.0015 16.4186 96.8987 18.4957 96.7448 21.0857H99.9246C99.9759 20.0086 100.771 19.0342 102.335 19.0342C103.797 19.0342 104.643 19.7779 104.643 20.8549C104.643 21.3934 104.31 21.8037 103.669 21.8037H101.489C98.6681 21.8037 96.7705 23.3423 96.7705 25.881C96.7705 28.0863 98.4886 29.7531 101.002 29.7531C102.771 29.7531 104.207 28.9582 104.643 27.7529V29.548H108.182V21.2395C108.182 18.3162 105.797 16.4186 102.54 16.4186ZM101.899 27.1631C100.899 27.1631 100.181 26.5733 100.181 25.7271C100.181 24.727 100.95 24.0603 102.027 24.0603H104.643V24.2398C104.643 25.881 103.643 27.1631 101.899 27.1631Z" fill="black"/>
<path d="M109.551 29.548H113.116V11.0078H109.551V29.548Z" fill="black"/>
<path d="M115.009 29.548H122.343C126.139 29.548 128.754 27.5991 128.754 24.1885C128.754 21.8293 127.369 20.3933 125.728 19.7522C126.78 19.1881 127.831 17.9059 127.831 16.2134C127.831 13.2131 125.395 11.5976 122.138 11.5976H115.009V29.548ZM118.805 18.4444V14.6492H121.779C123.497 14.6492 124.267 15.3415 124.267 16.5468C124.267 17.752 123.497 18.4444 121.856 18.4444H118.805ZM118.805 26.2143V21.7011H122.01C124.138 21.7011 125.087 22.5217 125.087 23.9834C125.087 25.445 124.138 26.2143 122.01 26.2143H118.805Z" fill="black"/>
<path d="M134.955 16.4186C131.416 16.4186 129.314 18.4957 129.16 21.0857H132.339C132.391 20.0086 133.186 19.0342 134.75 19.0342C136.212 19.0342 137.058 19.7779 137.058 20.8549C137.058 21.3934 136.724 21.8037 136.083 21.8037H133.904C131.083 21.8037 129.185 23.3423 129.185 25.881C129.185 28.0863 130.903 29.7531 133.416 29.7531C135.186 29.7531 136.622 28.9582 137.058 27.7529V29.548H140.597V21.2395C140.597 18.3162 138.212 16.4186 134.955 16.4186ZM134.314 27.1631C133.314 27.1631 132.596 26.5733 132.596 25.7271C132.596 24.727 133.365 24.0603 134.442 24.0603H137.058V24.2398C137.058 25.881 136.058 27.1631 134.314 27.1631Z" fill="black"/>
<path d="M141.761 29.548H145.351V22.4704C145.351 20.8036 146.454 19.5983 148.018 19.5983C149.505 19.5983 150.506 20.7267 150.506 22.2909V29.548H154.096V21.496C154.096 18.5213 152.198 16.4186 149.275 16.4186C147.505 16.4186 146.069 17.1622 145.351 18.4188V16.6237H141.761V29.548Z" fill="black"/>
<path d="M164.328 29.548H168.636L163.071 21.7011L168.225 16.6237H163.712L159.225 21.0344V11.0078H155.634V29.548H159.225V25.4963L160.661 24.0859L164.328 29.548Z" fill="black"/>
</svg>
