<svg width="144" height="42" viewBox="0 0 144 42" fill="none" xmlns="http://www.w3.org/2000/svg">
<path fill-rule="evenodd" clip-rule="evenodd" d="M17.3097 3.43256C16.878 3.34377 16.4327 3.34377 16.001 3.43256C15.502 3.53519 15.056 3.78501 14.7014 3.98362L14.6048 4.03761L2.587 10.7141C2.55377 10.7326 2.51954 10.7515 2.48446 10.7708C2.10909 10.9775 1.63713 11.2375 1.27469 11.6308C0.961331 11.9708 0.724191 12.3738 0.579126 12.8129C0.411337 13.3207 0.4133 13.8596 0.414861 14.2881C0.415007 14.3281 0.415149 14.3672 0.415149 14.4052V27.5876C0.415149 27.6256 0.415007 27.6647 0.414861 27.7047C0.4133 28.1333 0.411337 28.6721 0.579126 29.1799C0.724192 29.619 0.961333 30.022 1.27469 30.362C1.63713 30.7553 2.1091 31.0153 2.48446 31.222C2.51954 31.2414 2.55378 31.2602 2.587 31.2787L14.6048 37.9552L14.7014 38.0092C15.056 38.2078 15.502 38.4576 16.001 38.5603C16.4327 38.649 16.878 38.649 17.3097 38.5603C17.8087 38.4576 18.2547 38.2078 18.6093 38.0092L18.706 37.9552L30.7237 31.2787C30.7384 31.2705 30.7533 31.2623 30.7684 31.254C30.7874 31.2435 30.8067 31.2328 30.8262 31.222C31.2016 31.0153 31.6736 30.7553 32.036 30.362C32.3494 30.022 32.5865 29.619 32.7316 29.1799C32.8994 28.6721 32.8974 28.1333 32.8959 27.7047C32.8957 27.6647 32.8956 27.6256 32.8956 27.5876V14.4052C32.8956 14.3672 32.8957 14.3281 32.8959 14.2881C32.8974 13.8596 32.8994 13.3207 32.7316 12.8129C32.5865 12.3738 32.3494 11.9708 32.036 11.6308C31.6736 11.2375 31.2016 10.9775 30.8262 10.7708L30.8249 10.77C30.7903 10.751 30.7565 10.7324 30.7237 10.7141L18.706 4.03761L18.6093 3.98361C18.2547 3.785 17.8087 3.53519 17.3097 3.43256ZM16.1821 6.87691C16.4283 6.74018 16.5539 6.6711 16.6476 6.6259L16.6554 6.62218L16.6631 6.6259C16.7568 6.6711 16.8825 6.74018 17.1286 6.87691L27.9274 12.8763L16.6553 19.1385L5.38325 12.8763L16.1821 6.87691ZM3.66319 15.6363L15.0313 21.9519L15.0313 34.4766L4.16439 28.4394C3.90462 28.2951 3.772 28.2206 3.67895 28.1613L3.67109 28.1563L3.6705 28.147C3.66387 28.0368 3.66319 27.8847 3.66319 27.5876V15.6363Z" fill="black"/>
<path d="M47.6762 26.4238H52.8459V29.4702H43.7297V13.2687H47.6762V26.4238Z" fill="black"/>
<path d="M56.4823 15.2535C55.7899 15.2535 55.2207 15.0535 54.7745 14.6535C54.3437 14.238 54.1283 13.7303 54.1283 13.1302C54.1283 12.5148 54.3437 12.0071 54.7745 11.607C55.2207 11.1916 55.7899 10.9839 56.4823 10.9839C57.1593 10.9839 57.7132 11.1916 58.144 11.607C58.5902 12.0071 58.8133 12.5148 58.8133 13.1302C58.8133 13.7303 58.5902 14.238 58.144 14.6535C57.7132 15.0535 57.1593 15.2535 56.4823 15.2535ZM58.444 16.5921V29.4702H54.4975V16.5921H58.444Z" fill="black"/>
<path d="M65.966 16.4075C66.8738 16.4075 67.6662 16.5921 68.3431 16.9614C69.0355 17.3306 69.5663 17.8153 69.9356 18.4153V16.5921H73.8821V29.4471C73.8821 30.6318 73.6436 31.7012 73.1667 32.6551C72.7051 33.6244 71.9896 34.3937 71.0203 34.963C70.0664 35.5323 68.874 35.8169 67.4431 35.8169C65.5352 35.8169 63.9889 35.3631 62.8042 34.4553C61.6194 33.5629 60.9425 32.3474 60.7732 30.8088H64.6736C64.7967 31.3011 65.089 31.6858 65.5506 31.9627C66.0122 32.2551 66.5814 32.4012 67.2584 32.4012C68.0739 32.4012 68.7201 32.1628 69.1971 31.6858C69.6894 31.2242 69.9356 30.478 69.9356 29.4471V27.6239C69.5509 28.2239 69.0201 28.7163 68.3431 29.1009C67.6662 29.4702 66.8738 29.6548 65.966 29.6548C64.9044 29.6548 63.9427 29.3856 63.0811 28.8471C62.2195 28.2932 61.5348 27.5162 61.0271 26.5161C60.5347 25.5006 60.2886 24.3313 60.2886 23.0081C60.2886 21.6849 60.5347 20.5232 61.0271 19.5231C61.5348 18.523 62.2195 17.7537 63.0811 17.2152C63.9427 16.6767 64.9044 16.4075 65.966 16.4075ZM69.9356 23.0311C69.9356 22.0464 69.6587 21.2694 69.1048 20.7002C68.5662 20.1309 67.9046 19.8462 67.12 19.8462C66.3353 19.8462 65.666 20.1309 65.1121 20.7002C64.5736 21.2541 64.3043 22.0234 64.3043 23.0081C64.3043 23.9928 64.5736 24.7775 65.1121 25.3621C65.666 25.9314 66.3353 26.2161 67.12 26.2161C67.9046 26.2161 68.5662 25.9314 69.1048 25.3621C69.6587 24.7928 69.9356 24.0159 69.9356 23.0311Z" fill="black"/>
<path d="M84.4226 16.4536C85.8996 16.4536 87.0844 16.946 87.9767 17.9307C88.8691 18.9 89.3153 20.2386 89.3153 21.9464V29.4702H85.3919V22.4773C85.3919 21.6156 85.1688 20.9463 84.7226 20.4694C84.2764 19.9924 83.6763 19.7539 82.9224 19.7539C82.1685 19.7539 81.5685 19.9924 81.1223 20.4694C80.6761 20.9463 80.453 21.6156 80.453 22.4773V29.4702H76.5065V12.3917H80.453V18.323C80.853 17.7537 81.3992 17.2999 82.0916 16.9614C82.784 16.6229 83.561 16.4536 84.4226 16.4536Z" fill="black"/>
<path d="M99.0046 26.1237V29.4702H96.9967C95.5658 29.4702 94.4503 29.124 93.6502 28.4316C92.8501 27.7239 92.4501 26.5776 92.4501 24.9929V19.8693H90.8807V16.5921H92.4501V13.4533H96.3966V16.5921H98.9815V19.8693H96.3966V25.039C96.3966 25.4237 96.4889 25.7006 96.6736 25.8699C96.8582 26.0391 97.1659 26.1237 97.5967 26.1237H99.0046Z" fill="black"/>
<path d="M104.919 18.4153C105.288 17.8153 105.819 17.3306 106.511 16.9614C107.203 16.5921 107.996 16.4075 108.888 16.4075C109.95 16.4075 110.911 16.6767 111.773 17.2152C112.635 17.7537 113.312 18.523 113.804 19.5231C114.312 20.5232 114.566 21.6849 114.566 23.0081C114.566 24.3313 114.312 25.5006 113.804 26.5161C113.312 27.5162 112.635 28.2932 111.773 28.8471C110.911 29.3856 109.95 29.6548 108.888 29.6548C107.98 29.6548 107.188 29.4779 106.511 29.124C105.834 28.7548 105.303 28.2701 104.919 27.67V29.4702H100.972V12.3917H104.919V18.4153ZM110.55 23.0081C110.55 22.0234 110.273 21.2541 109.719 20.7002C109.18 20.1309 108.511 19.8462 107.711 19.8462C106.926 19.8462 106.257 20.1309 105.703 20.7002C105.165 21.2694 104.895 22.0464 104.895 23.0311C104.895 24.0159 105.165 24.7928 105.703 25.3621C106.257 25.9314 106.926 26.2161 107.711 26.2161C108.496 26.2161 109.165 25.9314 109.719 25.3621C110.273 24.7775 110.55 23.9928 110.55 23.0081Z" fill="black"/>
<path d="M122.267 29.6548C121.006 29.6548 119.867 29.3856 118.852 28.8471C117.852 28.3086 117.059 27.5393 116.474 26.5392C115.905 25.5391 115.621 24.3697 115.621 23.0311C115.621 21.708 115.913 20.5463 116.498 19.5462C117.082 18.5307 117.882 17.7537 118.898 17.2152C119.913 16.6767 121.052 16.4075 122.313 16.4075C123.575 16.4075 124.714 16.6767 125.729 17.2152C126.745 17.7537 127.545 18.5307 128.129 19.5462C128.714 20.5463 129.006 21.708 129.006 23.0311C129.006 24.3543 128.706 25.5237 128.106 26.5392C127.522 27.5393 126.714 28.3086 125.683 28.8471C124.668 29.3856 123.529 29.6548 122.267 29.6548ZM122.267 26.2391C123.021 26.2391 123.66 25.9622 124.183 25.4083C124.721 24.8544 124.991 24.062 124.991 23.0311C124.991 22.0003 124.729 21.2079 124.206 20.654C123.698 20.1001 123.067 19.8232 122.313 19.8232C121.544 19.8232 120.906 20.1001 120.398 20.654C119.89 21.1925 119.636 21.9849 119.636 23.0311C119.636 24.062 119.882 24.8544 120.375 25.4083C120.883 25.9622 121.513 26.2391 122.267 26.2391Z" fill="black"/>
<path d="M138.485 29.4702L136.016 25.893L133.939 29.4702H129.669L133.916 22.8927L129.554 16.5921H133.985L136.454 20.1463L138.532 16.5921H142.801L138.485 23.0773L142.917 29.4702H138.485Z" fill="black"/>
</svg>
