<svg width="181" height="105" viewBox="0 0 181 105" fill="none" xmlns="http://www.w3.org/2000/svg">
<path d="M136.268 3.84255C135.971 3.59497 135.542 3.59497 135.228 3.84255L132.109 6.31835H67.8699V1.61433C67.8699 1.15218 67.5068 0.789062 67.0447 0.789062H49.483C49.0208 0.789062 48.6577 1.15218 48.6577 1.61433V6.31835H0.825267C0.363117 6.31835 0 6.68146 0 7.14361V52.1041C0 52.5663 0.363117 52.9294 0.825267 52.9294H8.3517V92.5587H6.22251C5.76036 92.5587 5.39725 92.9218 5.39725 93.384V104.162C5.39725 104.624 5.76036 104.987 6.22251 104.987H53.9064H100.897H170.896C171.358 104.987 171.722 104.624 171.722 104.162V94.1927H172.514C172.976 94.1927 173.339 93.8296 173.339 93.3675V40.699L177.102 43.6864C177.251 43.802 177.432 43.868 177.614 43.868C177.861 43.868 178.093 43.769 178.258 43.5544L180.816 40.3689C180.948 40.2038 181.014 39.9727 180.998 39.7582C180.981 39.5436 180.865 39.3455 180.684 39.197L136.268 3.84255ZM50.3083 2.4396H66.2029V6.30184H50.3083V2.4396ZM130.046 7.96888L91.4231 38.6523H59.2046C58.7425 38.6523 58.3794 39.0154 58.3794 39.4776V43.0427V47.5322H1.65053V7.96888H130.046ZM171.705 92.5422H99.7087V39.4115L135.723 10.8243L171.705 39.395V92.5422ZM98.0582 92.5587H87.8249V58.2111C87.8249 57.749 87.4618 57.3858 86.9996 57.3858H68.2661C67.8039 57.3858 67.4408 57.749 67.4408 58.2111V92.5587H61.1688H56.6958V52.9294H59.1881C59.6503 52.9294 60.0134 52.5663 60.0134 52.1041V43.868H93.7833C93.9649 43.868 94.1464 43.802 94.295 43.6864L98.0417 40.7155V92.5587H98.0582ZM86.1744 92.5587H69.0913V59.0364H86.1744V92.5587ZM13.947 92.5587V76.6311H15.9442V90.215C15.9442 90.6771 16.3073 91.0402 16.7694 91.0402C17.2316 91.0402 17.5947 90.6771 17.5947 90.215V76.6311H19.9384V90.215C19.9384 90.6771 20.3016 91.0402 20.7637 91.0402C21.2259 91.0402 21.589 90.6771 21.589 90.215V76.6311H23.9327V90.215C23.9327 90.6771 24.2959 91.0402 24.758 91.0402C25.2202 91.0402 25.5833 90.6771 25.5833 90.215V76.6311H27.927V90.215C27.927 90.6771 28.2901 91.0402 28.7523 91.0402C29.2144 91.0402 29.5776 90.6771 29.5776 90.215V76.6311H31.9213V90.215C31.9213 90.6771 32.2844 91.0402 32.7466 91.0402C33.2087 91.0402 33.5719 90.6771 33.5719 90.215V76.6311H35.9156V90.215C35.9156 90.6771 36.2787 91.0402 36.7409 91.0402C37.203 91.0402 37.5661 90.6771 37.5661 90.215V76.6311H39.9099V90.215C39.9099 90.6771 40.273 91.0402 40.7352 91.0402C41.1973 91.0402 41.5604 90.6771 41.5604 90.215V76.6311H43.9042V90.215C43.9042 90.6771 44.2673 91.0402 44.7295 91.0402C45.1916 91.0402 45.5547 90.6771 45.5547 90.215V76.6311H47.8985V90.215C47.8985 90.6771 48.2616 91.0402 48.7238 91.0402C49.1859 91.0402 49.549 90.6771 49.549 90.215V76.6311H51.15V92.5587H13.947ZM58.3794 51.2789H55.8871H51.9423H13.1217H9.17697H1.65053V49.1827H58.3794V51.2789ZM51.117 52.9294V74.9805H13.947V52.9294H51.117ZM52.7676 52.9294H55.0618V92.5587H52.7676V52.9294ZM10.0022 52.9294H12.2965V92.5587H10.0022V52.9294ZM7.04778 94.2092H9.17697H13.1217H51.9423H55.8871H60.36V96.1569H57.4881C57.0259 96.1569 56.6628 96.52 56.6628 96.9821V99.755H53.9229C53.4608 99.755 53.0977 100.118 53.0977 100.58V103.353H7.04778V94.2092ZM54.7317 101.389H57.4716C57.9337 101.389 58.2969 101.026 58.2969 100.564V97.7909H61.1688C61.6309 97.7909 61.994 97.4278 61.994 96.9656V94.1927H68.2661H86.9996H100.072V103.32H54.7317V101.389ZM170.087 103.337H101.739V94.2092H170.087V103.337ZM177.498 41.8873L136.235 9.12426C135.921 8.87667 135.525 8.84366 135.228 9.12426H135.212L122.899 18.9119L93.5192 42.234H60.0299V40.3193H91.7202C91.9017 40.3193 92.0833 40.2533 92.2318 40.1378L132.934 7.80383L135.756 5.5591L179.017 40.0057L177.498 41.8873Z" fill="#5F5C60"/>
<path d="M131.233 20.6286V35.1037C131.233 35.5659 131.596 35.929 132.058 35.929H139.469C139.931 35.929 140.294 35.5659 140.294 35.1037V20.6286C140.294 20.1664 139.931 19.8033 139.469 19.8033H132.058C131.596 19.8033 131.233 20.1829 131.233 20.6286ZM132.883 21.4538H138.643V34.2785H132.883V21.4538Z" fill="#5F5C60"/>
<path d="M116.428 52.9295H105.766C105.304 52.9295 104.94 53.2926 104.94 53.7548V81.0216C104.94 81.4837 105.304 81.8469 105.766 81.8469H116.428H135.063H153.697H164.36C164.822 81.8469 165.185 81.4837 165.185 81.0216V53.7548C165.185 53.2926 164.822 52.9295 164.36 52.9295H153.697H135.063H116.428ZM106.591 54.5801H115.603V80.1963H106.591V54.5801ZM117.253 54.5801H134.237V80.1963H117.253V54.5801ZM163.534 80.1963H154.522V54.5801H163.534V80.1963ZM152.855 80.1963H135.871V54.5801H152.855V80.1963Z" fill="#5F5C60"/>
<path d="M23.6534 73.5612C24.1155 73.5612 24.4787 73.198 24.4787 72.7359V57.1879H39.2014V72.7359C39.2014 73.198 39.5645 73.5612 40.0267 73.5612C40.4888 73.5612 40.852 73.198 40.852 72.7359V56.3626C40.852 55.9005 40.4888 55.5373 40.0267 55.5373H23.6534C23.1912 55.5373 22.8281 55.9005 22.8281 56.3626V72.7359C22.8281 73.198 23.1912 73.5612 23.6534 73.5612Z" fill="#5F5C60"/>
<path d="M128.429 57.6335L121.645 64.4172C121.315 64.7473 121.315 65.259 121.645 65.5891C121.81 65.7541 122.025 65.8367 122.223 65.8367C122.421 65.8367 122.652 65.7541 122.8 65.5891L129.584 58.8054C129.914 58.4753 129.914 57.9636 129.584 57.6335C129.271 57.3034 128.742 57.3034 128.429 57.6335Z" fill="#5F5C60"/>
<path d="M128.428 63.1463L120.786 70.7883C120.456 71.1184 120.456 71.6301 120.786 71.9602C120.951 72.1252 121.165 72.2077 121.363 72.2077C121.561 72.2077 121.793 72.1252 121.941 71.9602L129.583 64.3182C129.913 63.9881 129.913 63.4764 129.583 63.1463C129.269 62.8327 128.741 62.8327 128.428 63.1463Z" fill="#5F5C60"/>
<path d="M140.082 71.2339C140.296 71.2339 140.511 71.1514 140.66 70.9863L151.041 60.6045C151.372 60.2744 151.372 59.7627 151.041 59.4326C150.711 59.1025 150.2 59.1025 149.87 59.4326L139.488 69.8145C139.158 70.1446 139.158 70.6562 139.488 70.9863C139.653 71.1514 139.867 71.2339 140.082 71.2339Z" fill="#5F5C60"/>
<path d="M139.7 78.0011C139.915 78.0011 140.129 77.9186 140.278 77.7535L147.936 70.0951C148.266 69.765 148.266 69.2533 147.936 68.9232C147.606 68.5931 147.095 68.5931 146.764 68.9232L139.106 76.5817C138.776 76.9118 138.776 77.4234 139.106 77.7535C139.271 77.9186 139.486 78.0011 139.7 78.0011Z" fill="#5F5C60"/>
</svg>
