<svg width="190" height="94" viewBox="0 0 190 94" fill="none" xmlns="http://www.w3.org/2000/svg">
<path d="M189.089 34.5214H159.673V26.3695H168.295C168.733 26.3695 169.077 26.0253 169.077 25.5872V12.0998C169.077 11.6617 168.733 11.3175 168.295 11.3175H101.891V1.58531C101.891 1.1472 101.546 0.802979 101.108 0.802979H4.94433C4.50622 0.802979 4.162 1.1472 4.162 1.58531V15.323C4.162 15.7611 4.50622 16.1053 4.94433 16.1053H9.16892V35.0846H4.94433C4.50622 35.0846 4.162 35.4289 4.162 35.867V49.6047C4.162 50.0428 4.50622 50.387 4.94433 50.387H19.0106V86.9374H0.782329C0.344225 86.9374 0 87.2817 0 87.7198V92.5546C0 92.9927 0.344225 93.3369 0.782329 93.3369H189.089C189.527 93.3369 189.871 92.9927 189.871 92.5546V87.7198C189.871 87.2817 189.527 86.9374 189.089 86.9374H175.758V74.0603C175.758 73.6222 175.414 73.278 174.976 73.278H169.953V57.3028H174.976C175.414 57.3028 175.758 56.9586 175.758 56.5205V50.3714H189.089C189.527 50.3714 189.871 50.0271 189.871 49.589V35.3037C189.871 34.8656 189.527 34.5214 189.089 34.5214ZM158.109 35.3037V44.2379H118.585V26.3695H158.109V35.3037ZM10.7336 16.0897H81.5031V35.069H10.7336V16.0897ZM5.72666 36.6337H82.2854C82.7235 36.6337 83.0677 36.2894 83.0677 35.8513V15.3074C83.0677 14.8693 82.7235 14.525 82.2854 14.525H5.72666V2.35199H100.326V48.7911H19.8086H19.7929H5.74232V36.6337H5.72666ZM188.307 91.7566H1.56466V88.4865H19.7929H45.7819H61.053H64.0571H80.22H83.2242H99.3871H102.391H188.307V91.7566ZM141.508 73.278V57.3028H156.106V73.278H141.508ZM139.943 73.278H138.504V57.3028H139.943V73.278ZM120.776 73.278H119.336V57.3028H120.776V73.278ZM101.609 86.9218H100.169V57.3028H101.609V86.9218ZM84.0065 57.3028H98.6048V86.9218H84.0065V57.3028ZM82.4419 86.9218H81.0024V57.3028H82.4419V86.9218ZM79.4377 86.9218H64.8395V57.3028H79.4377V86.9218ZM63.2748 86.9218H61.8353V57.3028H63.2748V86.9218ZM60.2706 86.9218H46.5643V57.3028H60.2706V86.9218ZM108.306 74.0603V86.9218H103.174V57.3028H117.772V73.278H109.088C108.65 73.278 108.306 73.6222 108.306 74.0603ZM122.341 57.3028H136.939V73.278H122.341V57.3028ZM157.671 57.3028H159.11V73.278H157.671V57.3028ZM174.193 86.9218H109.87V74.8426H156.888H159.892H169.171H174.193V86.9218ZM168.389 73.278H160.675V57.3028H168.389V73.278ZM174.193 55.7381H169.187H169.171H159.892H156.888H45.7819C45.3438 55.7381 44.9996 56.0824 44.9996 56.5205V86.9218H20.5753V50.3714H101.093H174.178V55.7381H174.193ZM188.307 48.8067H174.991H174.976H101.891V12.8821H167.512V24.8048H117.803C117.365 24.8048 117.021 25.1491 117.021 25.5872V45.0202C117.021 45.4583 117.365 45.8026 117.803 45.8026H158.891C159.329 45.8026 159.673 45.4583 159.673 45.0202V36.086H188.307V48.8067Z" fill="#5F5C60"/>
<path d="M24.8155 16.9815C24.3774 16.9815 24.0332 17.3258 24.0332 17.7639V32.6281C24.0332 33.0662 24.3774 33.4105 24.8155 33.4105C25.2536 33.4105 25.5978 33.0662 25.5978 32.6281V17.7639C25.5978 17.3258 25.238 16.9815 24.8155 16.9815Z" fill="#5F5C60"/>
<path d="M42.9349 16.9815C42.4968 16.9815 42.1525 17.3258 42.1525 17.7639V32.6281C42.1525 33.0662 42.4968 33.4105 42.9349 33.4105C43.373 33.4105 43.7172 33.0662 43.7172 32.6281V17.7639C43.7172 17.3258 43.373 16.9815 42.9349 16.9815Z" fill="#5F5C60"/>
<path d="M61.0518 16.9815C60.6137 16.9815 60.2694 17.3258 60.2694 17.7639V32.6281C60.2694 33.0662 60.6137 33.4105 61.0518 33.4105C61.4899 33.4105 61.8341 33.0662 61.8341 32.6281V17.7639C61.8341 17.3258 61.4899 16.9815 61.0518 16.9815Z" fill="#5F5C60"/>
<path d="M129.977 43.4086C130.415 43.4086 130.759 43.0644 130.759 42.6263V28.1688C130.759 27.7307 130.415 27.3865 129.977 27.3865C129.539 27.3865 129.194 27.7307 129.194 28.1688V42.6263C129.194 43.0644 129.539 43.4086 129.977 43.4086Z" fill="#5F5C60"/>
<path d="M144.34 43.4086C144.778 43.4086 145.122 43.0644 145.122 42.6263V28.1688C145.122 27.7307 144.778 27.3865 144.34 27.3865C143.902 27.3865 143.558 27.7307 143.558 28.1688V42.6263C143.558 43.0644 143.917 43.4086 144.34 43.4086Z" fill="#5F5C60"/>
<path d="M50.3663 68.5527C50.5697 68.5527 50.7731 68.4745 50.914 68.318L57.1726 62.0594C57.4855 61.7464 57.4855 61.2614 57.1726 60.9484C56.8597 60.6355 56.3746 60.6355 56.0617 60.9484L49.8031 67.2071C49.4901 67.52 49.4901 68.0051 49.8031 68.318C49.9595 68.4745 50.1629 68.5527 50.3663 68.5527Z" fill="#5F5C60"/>
<path d="M96.8845 74.6392C96.5716 74.3263 96.0865 74.3263 95.7735 74.6392L89.5618 80.8509C89.2489 81.1639 89.2489 81.6489 89.5618 81.9618C89.7183 82.1183 89.9217 82.1965 90.1095 82.1965C90.3129 82.1965 90.5163 82.1183 90.6571 81.9618L96.8688 75.7501C97.1818 75.4372 97.1818 74.9522 96.8845 74.6392Z" fill="#5F5C60"/>
<path d="M67.0296 83.5734C67.1861 83.7299 67.3895 83.8081 67.5773 83.8081C67.765 83.8081 67.9841 83.7299 68.1249 83.5734L74.9781 76.7202C75.2911 76.4073 75.2911 75.9222 74.9781 75.6093C74.6652 75.2964 74.1801 75.2964 73.8672 75.6093L67.014 82.4625C66.7167 82.7754 66.7167 83.2605 67.0296 83.5734Z" fill="#5F5C60"/>
<path d="M113.703 60.9484C113.39 60.6355 112.905 60.6355 112.592 60.9484L104.613 68.9282C104.3 69.2411 104.3 69.7262 104.613 70.0391C104.769 70.1956 104.972 70.2738 105.16 70.2738C105.348 70.2738 105.567 70.1956 105.708 70.0391L113.688 62.0594C114.001 61.7464 114.001 61.2614 113.703 60.9484Z" fill="#5F5C60"/>
<path d="M115.456 64.9383C115.143 64.6254 114.658 64.6254 114.345 64.9383L111.544 67.7391C111.232 68.052 111.232 68.5371 111.544 68.85C111.701 69.0065 111.904 69.0847 112.092 69.0847C112.296 69.0847 112.499 69.0065 112.64 68.85L115.44 66.0492C115.769 65.7363 115.769 65.2356 115.456 64.9383Z" fill="#5F5C60"/>
<path d="M135.797 60.9484C135.484 60.6355 134.999 60.6355 134.686 60.9484L128.975 66.6595C128.662 66.9724 128.662 67.4574 128.975 67.7704C129.131 67.9268 129.335 68.0051 129.523 68.0051C129.726 68.0051 129.929 67.9268 130.07 67.7704L135.781 62.0594C136.11 61.7464 136.11 61.2614 135.797 60.9484Z" fill="#5F5C60"/>
<path d="M149.879 62.9512C149.566 62.6383 149.081 62.6383 148.768 62.9512L144.528 67.1915C144.215 67.5044 144.215 67.9894 144.528 68.3024C144.684 68.4588 144.888 68.5371 145.075 68.5371C145.263 68.5371 145.482 68.4588 145.623 68.3024L149.863 64.0621C150.192 63.7492 150.192 63.2642 149.879 62.9512Z" fill="#5F5C60"/>
</svg>
