<svg width="154" height="133" viewBox="0 0 154 133" fill="none" xmlns="http://www.w3.org/2000/svg">
<path d="M0.846923 56.0143H2.40143V58.4497C2.40143 58.9334 2.78142 59.3134 3.26505 59.3134H4.68139V123.48H4.50866C4.02503 123.48 3.64504 123.86 3.64504 124.344V131.408C3.64504 131.892 4.02503 132.272 4.50866 132.272H55.0477H59.953H93.7551H98.6604H149.372C149.856 132.272 150.236 131.892 150.236 131.408V124.344C150.236 123.86 149.856 123.48 149.372 123.48H149.199V59.3134H150.823C151.307 59.3134 151.687 58.9334 151.687 58.4497V56.0143H153.034C153.518 56.0143 153.897 55.6343 153.897 55.1507V52.3008C153.915 52.249 153.932 52.1971 153.932 52.1281C153.932 52.0071 153.915 51.9035 153.863 51.8172L150.288 13.8525V7.59985C150.581 7.46167 150.788 7.16804 150.788 6.82259V0.863619C150.788 0.379992 150.408 0 149.925 0H140.736C140.252 0 139.872 0.379992 139.872 0.863619V6.82259C139.872 7.16804 140.08 7.46167 140.373 7.59985V12.4707H13.3348V7.61712C13.6458 7.47894 13.853 7.18531 13.853 6.82259V0.863619C13.853 0.379992 13.473 0 12.9894 0H3.78322C3.2996 0 2.9196 0.379992 2.9196 0.863619V6.82259C2.9196 7.18531 3.12688 7.47894 3.43778 7.61712V15.6833L0.00056627 52.0417C0.00056627 52.059 0.00056627 52.059 0.00056627 52.0762C0.00056627 52.0935 0.00056627 52.1108 0.00056627 52.1108V55.1335C-0.0167061 55.6344 0.363296 56.0143 0.846923 56.0143ZM63.4248 97.9344V95.3781C63.4248 94.8945 63.0448 94.5145 62.5611 94.5145H62.2848V94.3418C62.2848 93.8581 61.9048 93.4782 61.4212 93.4782H60.3157L77.0527 81.5775L93.5824 93.2709V93.4782H92.6669C92.1833 93.4782 91.8033 93.8581 91.8033 94.3418V94.5145H91.3197C90.8361 94.5145 90.4561 94.8945 90.4561 95.3781V97.9344C90.1452 98.0553 89.9206 98.3662 89.9206 98.729V122.945C89.9206 123.152 90.007 123.325 90.1106 123.463H85.8616C85.9825 123.325 86.0516 123.135 86.0516 122.945V98.7462C86.0516 98.3835 85.8271 98.0726 85.5162 97.9517V97.3817C85.5162 96.8981 85.1362 96.5181 84.6525 96.5181H69.2456C68.7619 96.5181 68.382 96.8981 68.382 97.3817V97.9517C68.0711 98.0726 67.8465 98.3835 67.8465 98.7462V122.962C67.8465 123.169 67.9329 123.342 68.0365 123.48H63.7875C63.9084 123.342 63.9775 123.152 63.9775 122.962V98.7462C63.9602 98.3835 63.7357 98.0726 63.4248 97.9344ZM60.7994 128.748H92.8742V130.562H60.7994V128.748ZM92.8914 127.021H60.8166V125.208H92.8914V127.021ZM84.3071 99.5408V122.15C83.9962 122.271 83.7716 122.582 83.7716 122.945V123.463H70.0919V122.945C70.0919 122.582 69.8674 122.271 69.5565 122.15V99.5408C69.8674 99.4199 70.0919 99.1089 70.0919 98.7462V98.2281H83.7716V98.7462C83.7716 99.1089 83.9962 99.4199 84.3071 99.5408ZM5.37228 125.208H5.54501H54.1841V130.545H5.37228V125.208ZM55.9113 130.545V125.208H59.0894V127.885V130.562H55.9113V130.545ZM94.6187 130.545V127.867V125.19H97.7968V130.527H94.6187V130.545ZM148.491 130.545H99.5068V125.208H148.301H148.474V130.545H148.491ZM152.153 54.2871H150.806C150.322 54.2871 149.942 54.6671 149.942 55.1507V57.5861H148.319C147.835 57.5861 147.455 57.9661 147.455 58.4497V123.48H98.7813C98.7295 123.48 98.695 123.446 98.6432 123.446H93.7378C93.7033 123.446 93.6687 123.463 93.6342 123.463H92.166V122.945C92.166 122.582 91.9415 122.271 91.6306 122.15V99.5408C91.9415 99.4199 92.166 99.1089 92.166 98.7462V96.2417H92.6496C93.1333 96.2417 93.5133 95.8617 93.5133 95.3781V95.2054H94.4287C94.9123 95.2054 95.2923 94.8254 95.2923 94.3418V92.8218C95.2923 92.5454 95.1541 92.2864 94.9296 92.1136L77.5363 79.8157C77.2427 79.6084 76.8454 79.6084 76.5345 79.8157L58.934 92.2518C58.7094 92.4073 58.5712 92.6836 58.5712 92.96V94.3418C58.5712 94.8254 58.9512 95.2054 59.4348 95.2054H60.5403V95.3781C60.5403 95.8617 60.9203 96.2417 61.4039 96.2417H61.6803V98.7462C61.6803 99.1089 61.9048 99.4199 62.2157 99.5408V122.15C61.9048 122.271 61.6803 122.582 61.6803 122.945V123.463H60.0567C60.0221 123.463 59.9876 123.446 59.953 123.446H55.0477C54.9959 123.446 54.9613 123.463 54.9095 123.48H6.40863V58.4497C6.40863 57.9661 6.02864 57.5861 5.54501 57.5861H4.12866V55.1507C4.12866 54.6671 3.74867 54.2871 3.26505 54.2871H1.71054V52.9917H152.153V54.2871ZM142.083 13.3343V7.68621H148.543V13.887V17.7906H142.083V13.3343ZM141.582 1.72724H149.044V5.95897H141.582V1.72724ZM5.14776 15.7179V7.68621H11.5903V13.3343V17.7906H5.14776V15.7179ZM4.62958 1.72724H12.1085V5.95897H4.62958V1.72724ZM4.78502 19.5178H12.454C12.9376 19.5178 13.3176 19.1378 13.3176 18.6542V14.1979H140.356V18.6542C140.356 19.1378 140.736 19.5178 141.22 19.5178H149.079L152.067 51.2644H1.79691L4.78502 19.5178Z" fill="#5F5C60"/>
<path d="M14.6125 84.0647H21.7115H34.113H46.5146H53.6136C54.0972 84.0647 54.4772 83.6847 54.4772 83.2011V65.0651C54.4772 64.5814 54.0972 64.2014 53.6136 64.2014H46.5146H34.113H21.7115H14.6125C14.1289 64.2014 13.7489 64.5814 13.7489 65.0651V83.2011C13.7489 83.6674 14.1462 84.0647 14.6125 84.0647ZM52.7327 82.3375H47.3609V65.9287H52.7327V82.3375ZM45.6337 82.3375H34.9594V65.9287H45.6337V82.3375ZM33.2494 82.3375H22.5751V65.9287H33.2494V82.3375ZM15.4761 65.9114H20.8479V82.3202H15.4761V65.9114Z" fill="#5F5C60"/>
<path d="M14.6125 114.136H21.7115H34.113H46.5146H53.6136C54.0972 114.136 54.4772 113.756 54.4772 113.272V95.1363C54.4772 94.6527 54.0972 94.2727 53.6136 94.2727H46.5146H34.113H21.7115H14.6125C14.1289 94.2727 13.7489 94.6527 13.7489 95.1363V113.272C13.7489 113.739 14.1462 114.136 14.6125 114.136ZM52.7327 112.409H47.3609V95.9999H52.7327V112.409ZM45.6337 112.409H34.9594V95.9999H45.6337V112.409ZM33.2494 112.409H22.5751V95.9999H33.2494V112.409ZM15.4761 95.9999H20.8479V112.409H15.4761V95.9999Z" fill="#5F5C60"/>
<path d="M101.043 84.0647H108.142H120.544H132.946H140.045C140.528 84.0647 140.908 83.6847 140.908 83.2011V65.0651C140.908 64.5814 140.528 64.2014 140.045 64.2014H132.946H120.544H108.142H101.043C100.56 64.2014 100.18 64.5814 100.18 65.0651V83.2011C100.18 83.6674 100.56 84.0647 101.043 84.0647ZM139.164 82.3375H133.792V65.9287H139.164V82.3375ZM132.065 82.3375H121.39V65.9287H132.065V82.3375ZM119.663 82.3375H108.989V65.9287H119.663V82.3375ZM101.907 65.9114H107.279V82.3202H101.907V65.9114Z" fill="#5F5C60"/>
<path d="M101.043 114.136H108.142H120.544H132.946H140.045C140.528 114.136 140.908 113.756 140.908 113.272V95.1363C140.908 94.6527 140.528 94.2727 140.045 94.2727H132.946H120.544H108.142H101.043C100.56 94.2727 100.18 94.6527 100.18 95.1363V113.272C100.18 113.739 100.56 114.136 101.043 114.136ZM139.164 112.409H133.792V95.9999H139.164V112.409ZM132.065 112.409H121.39V95.9999H132.065V112.409ZM119.663 112.409H108.989V95.9999H119.663V112.409ZM101.907 95.9999H107.279V112.409H101.907V95.9999Z" fill="#5F5C60"/>
</svg>
